<svg xmlns="http://www.w3.org/2000/svg" xml:space="preserve" id="svg1" version="1.1" viewBox="0 0 137.86668 134.75549" height="134.75549mm" width="137.86668mm"><defs id="defs1"></defs><g style="fill:#000000;fill-opacity:1" transform="translate(-37.272594,-77.223312)" id="layer1"><rect y="77.794312" x="37.272594" height="134.75549" width="138.06728" id="rect2" style="fill:#ffffff;fill-opacity:1;stroke-width:0.263929"></rect><path id="path2" d="m 66.417425,183.20374 c 1.92064,0.0829 4.35801,1.47672 6.21771,2.08645 2.8638,0.93894 5.99905,1.44218 8.99584,1.72754 7.884318,0.75081 16.057658,-1.17922 23.812495,-2.30213 5.39863,-0.78172 11.1933,-1.28 16.40417,-2.95196 5.15427,-1.65381 9.81257,-5.14277 11.78529,-10.33386 0.50427,-1.32696 0.65013,-2.69055 0.65013,-4.10104 0,-0.38995 0.14299,-1.17647 -0.21212,-1.45103 -0.33529,-0.25924 -0.99322,-0.0377 -1.37538,-0.004 -1.24651,0.10916 -2.46598,0.29522 -3.70417,0.47251 -4.84538,0.69381 -9.70363,1.29012 -14.55208,1.98438 -6.9841,1.00005 -14.01305,2.17731 -21.034377,2.85724 -2.95269,0.28593 -5.89977,1.03316 -8.863538,1.16295 -6.55975,0.28727 -12.80067,-1.02099 -18.78542,-3.69783 -9.51719,-4.25683 -16.84889,-11.38441 -21.98012,-20.37404 -1.77975,-3.11802 -3.20084,-6.57054 -4.06705,-10.05417 -0.23974,-0.96418 -0.53752,-3.61222 -1.4695,-3.96875 -0.40264,1.36217 -0.39358,2.95401 -0.56704,4.36562 -0.60815,4.94923 -0.45637,9.73343 0.0154,14.68438 3.90161,40.94366 50.312448,68.71196 88.525585,55.23709 5.78228,-2.03898 11.09901,-4.84541 15.875,-8.72187 4.83066,-3.92082 9.12034,-8.65069 12.15868,-14.10376 6.45812,-11.59073 7.39815,-26.93855 -1.79564,-37.461 -1.58586,-1.81504 -3.23341,-3.43412 -5.20367,-4.82793 -2.6384,-1.86648 -5.78991,-3.38531 -8.99583,-3.95181 -3.36442,-0.59449 -6.9719,-0.1136 -10.31875,0.29766 -4.18839,0.51466 -8.37812,1.09917 -12.56771,1.66355 -4.74906,0.63974 -9.59248,1.61287 -14.41979,1.12988 -5.015327,-0.50179 -10.117627,-3.75225 -13.184357,-7.65035 -1.501078,-1.90803 -2.660368,-4.00582 -3.318308,-6.35 -0.77532,-2.76238 -1.21083,-5.87747 -0.60675,-8.73125 0.61135,-2.8881 1.57844,-5.64795 3.094968,-8.20209 0.72823,-1.22648 1.91482,-2.3044 2.50507,-3.57187 -2.54394,0.22886 -5.240478,2.22092 -7.143758,3.78031 -7.35553,6.02655 -10.22122,16.76096 -4.99687,25.05927 1.54552,2.45488 3.65868,4.49143 6.05522,6.119 0.86594,0.58809 3.129668,1.23103 3.439578,2.21538 -3.256448,-0.0672 -6.524558,-0.64635 -9.525008,-1.94457 -1.77087,-0.76622 -3.47454,-1.88751 -4.88958,-3.19235 -8.53193,-7.86752 -8.33283,-20.60967 -2.55907,-30.05267 12.94636,-21.173806 40.581125,-27.012676 62.878865,-19.121466 5.79502,2.05088 11.38706,5.11148 15.96952,9.243986 1.54102,1.38971 3.36574,2.89776 4.40339,4.7181 -1.35719,-0.36862 -2.65154,-1.8377 -3.83645,-2.60654 -2.53016,-1.6417 -5.17047,-2.904616 -7.9375,-4.084606 -10.83566,-4.62079 -23.97331,-5.54488 -35.18959,-1.57177 -9.260217,3.28023 -18.008467,11.833826 -16.460717,22.285836 0.24424,1.64935 0.8019,3.19853 1.67111,4.63021 0.91602,1.50879 2.22984,2.8064 3.67711,3.80931 6.154667,4.26498 14.760787,1.44055 21.563537,0.59419 4.06203,-0.50538 8.11184,-1.12993 12.17084,-1.66365 2.75332,-0.36204 5.53823,-0.93512 8.33437,-0.74363 5.79006,0.39651 11.02787,2.44412 16.00729,5.33597 6.75846,3.92503 12.16435,10.61032 15.62103,17.53865 1.22969,2.46468 2.14021,5.06909 3.0222,7.67291 0.26066,0.76954 0.36987,2.37672 1.20052,2.64584 1.61166,-6.74972 2.58308,-13.52255 2.10483,-20.50521 -1.1939,-17.43128 -10.78432,-33.84554 -24.0877,-44.896286 -17.52432,-14.55696 -42.58736,-20.71183 -64.271287,-12.29405 -6.316838,2.45223 -11.977828,6.01207 -17.197418,10.29824 -4.46018,3.66257 -8.28661,8.32949 -11.21182,13.289996 -3.37577,5.72458 -5.414,11.91822 -5.86615,18.52085 -0.31652,4.62188 -0.091,9.24246 1.52941,13.62604 1.27699,3.45448 3.03267,6.47277 5.26299,9.39271 1.71329,2.24303 3.7937,4.30989 6.05173,6.00253 4.37221,3.27747 10.00118,5.74813 15.47812,6.27814 4.13245,0.3999 8.369918,-0.52909 12.435428,-1.11152 7.734317,-1.10802 15.622157,-2.69428 23.415617,-3.24349 8.14445,-0.57394 16.49964,-4.04273 23.8125,1.35538 1.12152,0.82785 2.13727,1.89832 2.95799,3.02208 1.01538,1.39033 1.81389,2.95999 2.25365,4.63021 3.27774,12.44861 -7.169,24.45782 -17.11789,30.26968 -14.41113,8.4186 -32.919077,7.67106 -47.624995,0.5214 -5.27671,-2.56539 -10.68567,-6.09732 -14.4198,-10.68274 M 158.6247,120.36537 c -0.94601,-0.30206 -1.67791,-1.08104 -2.51354,-1.60444 -1.7491,-1.09554 -3.53657,-2.16523 -5.42396,-3.00698 -6.21831,-2.77331 -12.13444,-3.6179 -18.9177,-3.32087 -7.1952,0.31506 -14.26364,2.24773 -21.43125,2.78466 -2.12688,0.15932 -5.37564,1.46751 -7.40834,0.64972 0.5222,-1.42161 0.91551,-2.82419 1.76676,-4.10105 2.57696,-3.86538 6.51399,-6.23271 10.80095,-7.74438 8.07092,-2.84597 17.37733,-2.38661 25.26771,0.92135 3.05587,1.28115 5.82049,2.96855 8.46667,4.95421 2.48385,1.86385 4.61297,4.01665 6.63183,6.36674 1.03864,1.20908 2.2391,2.57371 2.76087,4.10104 z" style="fill:#000000;fill-opacity:1;stroke:none"></path></g></svg>
